<svg version="1.2" xmlns="http://www.w3.org/2000/svg" viewBox="0 0 50 50" width="50" height="50">
	<title>icons</title>
	<style>
		.s0 { opacity: .6;fill: #e0e0e0 }
		.s1 { fill: #e0e0e0 }
	</style>
	<circle id="Shape 1" class="s0" cx="25" cy="25" r="24"/>
	<g id="Folder 2">
		<path id="Shape 3" class="s1" d="m34.2 19.7q1.4 2.4 1.4 5.3q0 2.9-1.4 5.3q-1.4 2.5-3.9 3.9q-2.4 1.4-5.3 1.4q-2.9 0-5.3-1.4q-2.5-1.4-3.9-3.9q-1.4-2.4-1.4-5.3q0-2.9 1.4-5.3q1.4-2.5 3.9-3.9q2.4-1.4 5.3-1.4q2.9 0 5.3 1.4q2.5 1.4 3.9 3.9zm-1.7-7.7q-3.4-2-7.5-2q-4.1 0-7.5 2q-3.5 2-5.5 5.5q-2 3.4-2 7.5q0 4.1 2 7.5q2 3.5 5.5 5.5q3.4 2 7.5 2q4.1 0 7.5-2q3.5-2 5.5-5.5q2-3.4 2-7.5q0-4.1-2-7.5q-2-3.5-5.5-5.5z"/>
	</g>
</svg>
